<svg width="175" height="125" viewBox="0 0 175 125" fill="none" xmlns="http://www.w3.org/2000/svg">
<path d="M20.401 104.681C7.2792 92.1039 3.17239 72.3713 5.51969 54.3924C6.81726 44.4499 9.94352 34.604 15.7299 26.398C21.5163 18.1921 30.1281 11.7366 39.9819 9.65913C51.2798 7.27472 62.9748 10.6949 73.681 15.0058C84.3872 19.3166 94.9043 24.6087 106.342 26.1989C115.237 27.4356 124.269 26.3675 133.248 26.174C142.228 25.9805 151.594 26.7758 159.336 31.3066C173.14 39.3858 178.105 58.2135 173.095 73.3516C168.086 88.4896 154.978 99.9142 140.396 106.505C125.814 113.095 109.72 115.48 93.8417 117.56C81.0709 119.232 68.1475 120.753 55.3383 119.402C42.529 118.051 29.6784 113.574 20.401 104.681Z" fill="#FFB5BA" fill-opacity="0.3"/>
<path d="M140.014 118.164L139.4 119.6L121.121 102.26C120.649 101.902 120.299 101.407 120.119 100.844L122.512 100.643L124.973 103.066L138.883 116.757L140.014 118.164Z" fill="#075E66"/>
<path d="M112.486 42.6244L124.881 44.2487L125.75 46.913L113.355 47.5253L112.486 42.6244Z" fill="#042023"/>
<path d="M114.892 41.8468L127.287 43.4711L124.881 44.2487L112.486 42.6244L114.892 41.8468Z" fill="#075E66"/>
<path d="M126.438 46.2223L112.774 44.2502L107.054 46.4259L117.579 49.0852L119.337 50.3174L124.446 49.9384L126.864 47.5267L126.438 46.2223Z" fill="#FDD4CB"/>
<path d="M120.12 100.844L138.371 118.163L138.884 116.484L116.563 49.2069L115.268 47.3552L102.873 45.7309L120.12 100.844Z" fill="#042023"/>
<path d="M105.279 44.9533L117.674 46.5785L115.268 47.3561L102.873 45.7318L105.279 44.9533Z" fill="#075E66"/>
<path d="M149.397 116.588L140.538 119.451L117.579 49.0837C118.148 49.2254 118.734 49.2863 119.32 49.2644C119.325 49.2654 119.331 49.2646 119.337 49.2624C119.497 49.2624 119.661 49.2514 119.827 49.2359C119.926 49.2282 120.028 49.2196 120.131 49.2063C120.243 49.1947 120.356 49.179 120.469 49.16C120.629 49.1392 120.791 49.1113 120.957 49.0748C121.013 49.0638 121.069 49.0528 121.123 49.0386C121.273 49.0089 121.422 48.973 121.578 48.9335C121.677 48.9083 121.776 48.8798 121.879 48.8534C121.936 48.835 121.994 48.8199 122.051 48.8015C122.15 48.7718 122.252 48.7421 122.353 48.7109C122.454 48.6798 122.554 48.6424 122.651 48.6076C122.711 48.5884 122.77 48.5658 122.827 48.5483C122.926 48.5094 123.019 48.4756 123.115 48.4376C123.264 48.3782 123.405 48.3189 123.545 48.2571C123.597 48.2367 123.649 48.2132 123.697 48.1907C123.853 48.123 124.001 48.0509 124.146 47.9725C124.248 47.9224 124.349 47.8686 124.447 47.8131C124.536 47.7636 124.623 47.711 124.707 47.6594C124.853 47.5739 124.993 47.4873 125.122 47.3923C125.126 47.3923 125.131 47.3861 125.134 47.3852C125.621 47.0594 126.061 46.6673 126.439 46.2203L149.397 116.588Z" fill="white"/>
<path d="M138.37 118.164L115.268 47.3552L117.674 46.5776L140.776 117.385C140.97 117.98 142.729 118.148 144.791 117.481C146.853 116.815 148.177 115.651 147.982 115.056L124.881 44.2487L127.287 43.4711L150.389 114.279C151.103 116.465 149.166 118.715 145.572 119.876C141.978 121.038 139.083 120.349 138.37 118.164Z" fill="#075E66"/>
<path d="M146.455 112.779L145.72 113.016L124.446 47.8114C124.535 47.7618 124.622 47.7093 124.706 47.6576C124.853 47.5721 124.992 47.4855 125.122 47.3905L146.455 112.779Z" fill="#FDD4CB"/>
<path d="M144.773 113.322L144.037 113.559L122.826 48.5477C122.925 48.5088 123.018 48.475 123.114 48.437C123.263 48.3776 123.404 48.3183 123.544 48.2565L144.773 113.322Z" fill="#FDD4CB"/>
<path d="M143.09 113.866L142.352 114.103L121.123 49.038C121.272 49.0083 121.421 48.9724 121.577 48.9329C121.677 48.9077 121.776 48.8792 121.879 48.8528L143.09 113.866Z" fill="#FDD4CB"/>
<path d="M141.405 114.41L140.67 114.648L119.336 49.2624C119.497 49.2624 119.661 49.2514 119.827 49.236C119.925 49.2283 120.027 49.2197 120.131 49.2063L141.405 114.41Z" fill="#FDD4CB"/>
<path d="M34.2261 102.19L43.0585 93.2477H97.8419L105.167 102.19H34.2261Z" fill="#075E66"/>
<path d="M110.597 108.573L107.384 106.937L99.9638 102.189L97.8398 93.2459H102.343C103.423 93.2459 106.141 94.1918 107.455 98.8137V98.8291L107.458 98.8383L110.597 108.573Z" fill="#075E66"/>
<path d="M107.948 104.608V118.166H37.687C38.1424 117.443 38.4922 116.659 38.726 115.837C38.797 115.607 38.8617 115.368 38.9172 115.122C38.9882 114.828 39.0499 114.518 39.0994 114.202C39.1423 113.969 39.1763 113.729 39.2041 113.484C39.2381 113.183 39.2658 112.879 39.2843 112.564C39.2998 112.331 39.309 112.091 39.3141 111.849C39.3174 111.699 39.3204 111.545 39.3204 111.389C39.3204 111.232 39.3174 111.079 39.3141 110.928C39.3081 110.686 39.2989 110.446 39.2843 110.213C39.2658 109.897 39.2381 109.593 39.2041 109.293C39.1763 109.048 39.1423 108.808 39.0994 108.575C39.0499 108.259 38.9882 107.949 38.9172 107.655C38.8617 107.409 38.7979 107.17 38.726 106.94C38.4922 106.118 38.1424 105.334 37.687 104.611L107.948 104.608Z" fill="white"/>
<path d="M105.167 120.585H34.2261V116.902H105.167C106.086 116.902 107.115 114.544 107.115 111.387C107.115 108.231 106.086 105.872 105.167 105.872H34.2261V102.19H105.167C108.545 102.19 110.815 105.886 110.815 111.387C110.815 116.889 108.545 120.585 105.167 120.585Z" fill="#0B919D"/>
<path d="M104.911 106.937V107.652H38.9163C38.8608 107.407 38.797 107.168 38.7251 106.937H104.911Z" fill="#FDD4CB"/>
<path d="M104.911 108.573V109.291H39.2033C39.1756 109.046 39.1416 108.806 39.0986 108.573H104.911Z" fill="#FDD4CB"/>
<path d="M104.911 110.212V110.927H39.314C39.308 110.685 39.2988 110.445 39.2842 110.212H104.911Z" fill="#FDD4CB"/>
<path d="M104.911 111.847V112.563H39.2832C39.2987 112.329 39.308 112.09 39.313 111.847H104.911Z" fill="#FDD4CB"/>
<path d="M104.911 113.483V114.202H39.0986C39.1416 113.968 39.1756 113.729 39.2033 113.483H104.911Z" fill="#FDD4CB"/>
<path d="M104.911 115.122V115.837H38.7251C38.7961 115.607 38.8608 115.368 38.9163 115.122H104.911Z" fill="#FDD4CB"/>
<path d="M104.91 110.927V119.456L102.869 118.835L100.723 119.456V110.927C100.723 110.45 104.91 110.45 104.91 110.927Z" fill="#FE869F"/>
<path d="M124.489 91.1405L114.899 84.3485C114.246 83.8853 113.463 83.6364 112.661 83.6362H58.8004L53.2061 90.5033L124.489 91.1405Z" fill="#075E66"/>
<path d="M124.49 92.038V100.654H55.4053C55.6943 100.194 55.9164 99.6959 56.0652 99.1743C56.0676 99.1695 56.0686 99.1642 56.0682 99.1589C56.1144 99.0179 56.1514 98.8704 56.1854 98.7202C56.2072 98.6312 56.2287 98.5392 56.2472 98.4439C56.2686 98.3427 56.2871 98.2382 56.3026 98.1341C56.3304 97.9857 56.3521 97.8373 56.3673 97.6797C56.3736 97.6277 56.3799 97.5755 56.3828 97.5233C56.3983 97.382 56.4106 97.241 56.4198 97.0935C56.4261 96.9986 56.4291 96.9033 56.4353 96.8051C56.4353 96.7499 56.4383 96.6946 56.4383 96.6394C56.4413 96.5445 56.4446 96.4462 56.4446 96.348C56.4446 96.2498 56.4413 96.1515 56.4383 96.0563C56.4383 95.9969 56.4353 95.9396 56.4353 95.8844C56.4291 95.7862 56.4261 95.6942 56.4198 95.5992C56.4106 95.4508 56.3983 95.3107 56.3828 95.1694C56.3799 95.1172 56.3736 95.065 56.3673 95.016C56.3521 94.8596 56.3304 94.7091 56.3026 94.5587C56.2871 94.4545 56.2686 94.3509 56.2472 94.2488C56.2287 94.1568 56.2072 94.0648 56.1854 93.9758C56.1514 93.8223 56.1144 93.6748 56.0682 93.5338C56.0682 93.5306 56.0652 93.5246 56.0652 93.5214C55.9158 92.9991 55.6937 92.5002 55.4053 92.0392L124.49 92.038Z" fill="white"/>
<path d="M122.723 102.19H53.2075V99.8498H122.723C123.308 99.8498 123.961 98.3513 123.961 96.3459C123.961 94.3405 123.308 92.8438 122.723 92.8438H53.2075V90.5033H122.723C124.87 90.5033 126.312 92.8518 126.312 96.3468C126.312 99.8418 124.87 102.19 122.723 102.19Z" fill="#042023"/>
<path d="M120.261 93.5326V94.2476H56.2468C56.2283 94.1556 56.2068 94.0636 56.1851 93.9745C56.1511 93.8211 56.1141 93.6736 56.0679 93.5326H120.261Z" fill="#FDD4CB"/>
<path d="M120.261 95.1682V95.8832H56.4348C56.4285 95.7849 56.4256 95.6929 56.4193 95.598C56.4101 95.4496 56.3978 95.3095 56.3823 95.1682H120.261Z" fill="#FDD4CB"/>
<path d="M120.261 96.8038V97.5221H56.3818C56.3973 97.3808 56.4096 97.2398 56.4188 97.0923C56.4251 96.9973 56.4281 96.9021 56.4343 96.8038H120.261Z" fill="#FDD4CB"/>
<path d="M120.261 98.4427V99.1577H56.0679C56.1141 99.0167 56.1511 98.8692 56.1851 98.719C56.2068 98.63 56.2283 98.538 56.2468 98.4427H120.261Z" fill="#FDD4CB"/>
<path d="M123.307 41.125L114.739 32.4514H61.5961L54.4897 41.1259L123.307 41.125Z" fill="#075E66"/>
<path d="M49.2217 47.3175L52.3387 45.7309L59.5366 41.1253L61.5958 32.4514H57.2295C56.1822 32.4514 53.5453 33.369 52.2704 37.8529V37.8678L52.2674 37.8767L49.2217 47.3175Z" fill="#075E66"/>
<path d="M51.791 43.4712V56.6237H119.95C119.508 55.9219 119.169 55.1611 118.942 54.3642C118.873 54.1411 118.81 53.9087 118.756 53.6706C118.688 53.3848 118.628 53.0842 118.58 52.7773C118.538 52.5512 118.505 52.3191 118.478 52.0807C118.445 51.789 118.419 51.4943 118.4 51.1877C118.385 50.9616 118.377 50.7292 118.371 50.4941C118.368 50.3481 118.365 50.1994 118.365 50.0489C118.365 49.8985 118.368 49.7483 118.371 49.6037C118.377 49.3684 118.385 49.1363 118.4 48.9099C118.418 48.6033 118.445 48.3086 118.478 48.0168C118.505 47.7794 118.538 47.5464 118.58 47.3202C118.628 47.0137 118.688 46.713 118.756 46.4272C118.81 46.1898 118.873 45.9568 118.942 45.7336C119.169 44.9367 119.508 44.1758 119.95 43.4739L51.791 43.4712Z" fill="white"/>
<path d="M54.4896 58.9698H123.306V55.3974H54.4896C53.5973 55.3974 52.5995 53.1094 52.5995 50.0474C52.5995 46.9855 53.5973 44.6975 54.4896 44.6975H123.306V41.1251H54.4896C51.2121 41.1251 49.0098 44.7106 49.0098 50.0474C49.0098 55.3843 51.2121 58.9698 54.4896 58.9698Z" fill="#0B919D"/>
<path d="M54.7368 45.731V46.4246H118.757C118.81 46.1871 118.873 45.9541 118.942 45.731H54.7368Z" fill="#FDD4CB"/>
<path d="M54.7368 47.3176V48.0141H118.478C118.505 47.7767 118.538 47.5437 118.58 47.3176H54.7368Z" fill="#FDD4CB"/>
<path d="M54.7368 48.9072V49.6011H118.371C118.377 49.3658 118.386 49.1337 118.401 48.9072H54.7368Z" fill="#FDD4CB"/>
<path d="M54.7368 50.4941V51.1877H118.401C118.386 50.9616 118.377 50.7292 118.371 50.4941H54.7368Z" fill="#FDD4CB"/>
<path d="M54.7368 52.0807V52.7773H118.58C118.538 52.5512 118.505 52.3191 118.478 52.0807H54.7368Z" fill="#FDD4CB"/>
<path d="M54.7368 53.6719V54.3655H118.942C118.873 54.1423 118.81 53.9099 118.757 53.6719H54.7368Z" fill="#FDD4CB"/>
<path d="M54.7368 49.601V57.8743L56.7173 57.2724L58.7992 57.8743V49.601C58.8001 49.1386 54.7368 49.1386 54.7368 49.601Z" fill="#FE869F"/>
<path d="M107.865 75.2938V88.2005H40.9795C41.4129 87.5117 41.7459 86.7651 41.9687 85.9832C42.0361 85.7639 42.0978 85.5363 42.1506 85.3024C42.2183 85.0219 42.2768 84.7269 42.3239 84.426C42.365 84.204 42.3972 83.976 42.4238 83.7434C42.456 83.457 42.4834 83.1679 42.4998 82.8669C42.5147 82.6449 42.5234 82.417 42.5296 82.1861C42.5326 82.0431 42.5356 81.897 42.5356 81.748C42.5356 81.5991 42.5326 81.453 42.5296 81.3097C42.5237 81.0791 42.515 80.8512 42.4998 80.6292C42.4822 80.3282 42.456 80.0388 42.4238 79.7527C42.3972 79.5189 42.3641 79.2912 42.3239 79.0701C42.2768 78.7695 42.2183 78.4742 42.1506 78.1937C42.0978 77.9601 42.0361 77.7322 41.9687 77.5132C41.746 76.7312 41.413 75.9847 40.9795 75.2958L107.865 75.2938Z" fill="white"/>
<path d="M105.217 90.5033H37.686V86.9968H105.217C106.092 86.9968 107.072 84.7516 107.072 81.7469C107.072 78.7422 106.092 76.497 105.217 76.497H37.686V72.9913H105.217C108.433 72.9913 110.594 76.51 110.594 81.7466C110.594 86.9831 108.433 90.5033 105.217 90.5033Z" fill="#0B919D"/>
<path d="M104.974 77.5111V78.1917H42.1526C42.0998 77.9581 42.0381 77.7301 41.9707 77.5111H104.974Z" fill="#FDD4CB"/>
<path d="M104.973 79.0681V79.7507H42.4241C42.3976 79.5168 42.3645 79.2892 42.3242 79.0681H104.973Z" fill="#FDD4CB"/>
<path d="M104.973 80.6283V81.3088H42.5293C42.5234 81.0782 42.5147 80.8503 42.4995 80.6283H104.973Z" fill="#FDD4CB"/>
<path d="M104.973 82.1852V82.8661H42.5C42.5149 82.6441 42.5236 82.4161 42.5298 82.1852H104.973Z" fill="#FDD4CB"/>
<path d="M104.973 83.7426V84.4252H42.3242C42.3654 84.2032 42.3976 83.9752 42.4241 83.7426H104.973Z" fill="#FDD4CB"/>
<path d="M104.973 85.3024V85.9833H41.9688C42.0361 85.7639 42.0979 85.5363 42.1507 85.3024H104.973Z" fill="#FDD4CB"/>
<path d="M44.6821 71.1509V60.8333H115.11C114.763 61.3837 114.497 61.9803 114.319 62.6051C114.265 62.7803 114.216 62.9613 114.174 63.1492C114.12 63.3732 114.073 63.6092 114.035 63.8499C114.002 64.028 113.975 64.2093 113.956 64.3963C113.93 64.6251 113.908 64.8563 113.894 65.0967C113.883 65.2748 113.876 65.4564 113.871 65.641C113.869 65.7553 113.866 65.8722 113.866 65.9912C113.866 66.1102 113.869 66.2286 113.871 66.3417C113.876 66.526 113.883 66.7083 113.894 66.8857C113.908 67.1261 113.93 67.3573 113.956 67.5865C113.977 67.7731 114.002 67.9554 114.035 68.1328C114.073 68.3732 114.12 68.6092 114.174 68.8333C114.216 69.0202 114.265 69.2025 114.319 69.3776C114.497 70.0027 114.763 70.5994 115.11 71.15L44.6821 71.1509Z" fill="white"/>
<path d="M46.7989 58.9929H117.743V61.7955H46.7989C46.0989 61.7955 45.3161 63.5902 45.3161 65.9921C45.3161 68.394 46.0989 70.189 46.7989 70.189H117.743V72.9913H46.7989C44.2279 72.9913 42.5 70.1786 42.5 65.9921C42.5 61.8056 44.2279 58.9929 46.7989 58.9929Z" fill="#042023"/>
<path d="M46.9937 69.3784V68.8341H114.173C114.215 69.0211 114.264 69.2033 114.318 69.3784H46.9937Z" fill="#FDD4CB"/>
<path d="M46.9937 68.1337V67.5873H113.956C113.977 67.774 114.002 67.9562 114.035 68.1337H46.9937Z" fill="#FDD4CB"/>
<path d="M46.9937 66.8866V66.3426H113.871C113.876 66.5269 113.883 66.7091 113.894 66.8866H46.9937Z" fill="#FDD4CB"/>
<path d="M46.9937 65.6419V65.0981H113.894C113.883 65.2762 113.876 65.4579 113.871 65.6425L46.9937 65.6419Z" fill="#FDD4CB"/>
<path d="M46.9937 64.3971V63.8516H114.034C114.001 64.0297 113.974 64.211 113.954 64.398L46.9937 64.3971Z" fill="#FDD4CB"/>
<path d="M46.9937 63.15V62.6051H114.319C114.265 62.7802 114.216 62.9613 114.174 63.1491L46.9937 63.15Z" fill="#FDD4CB"/>
<path d="M151.312 95.9458L140.155 94.9468L144.78 120.302C144.78 122.647 157.844 122.647 157.844 120.302L162.47 94.9468L151.312 95.9458Z" fill="#34BB9D"/>
<path d="M162.47 94.9468C162.47 95.2997 162.179 95.6375 161.648 95.9443C159.987 96.914 155.984 97.5954 151.312 97.5954C146.64 97.5954 142.637 96.9128 140.977 95.9443C140.445 95.6375 140.155 95.2997 140.155 94.9468C140.155 93.486 145.151 92.2986 151.312 92.2986C157.473 92.2986 162.47 93.486 162.47 94.9468Z" fill="#0B919D"/>
<path d="M161.646 95.9437C160.098 96.8492 156.512 97.5028 152.247 97.5856C152.006 97.5918 151.766 97.5948 151.522 97.5948H151.314C151.233 97.5948 151.153 97.5948 151.075 97.5918C150.847 97.5918 150.619 97.5918 150.394 97.5856C146.123 97.5028 142.527 96.8492 140.976 95.9437C142.311 95.1673 145.154 94.5749 148.642 94.3725C149.239 94.3387 149.854 94.3132 150.483 94.3052C150.607 94.3019 150.73 94.2989 150.856 94.2989C150.964 94.296 151.072 94.296 151.184 94.296H151.45C151.514 94.296 151.579 94.296 151.641 94.2989C152.245 94.3019 152.837 94.3173 153.414 94.3449C157.159 94.5099 160.243 95.1243 161.646 95.9437Z" fill="#FFD2D5"/>
<path d="M150.058 87.9806C150.058 87.9806 143.158 50.6576 154.91 27.1406L150.058 87.9806Z" fill="#FE869F"/>
<path d="M151.43 95.2748C151.421 95.8058 151.421 96.3338 151.43 96.8644C151.433 97.1069 151.439 97.3523 151.445 97.5948H151.313C151.233 97.5948 151.153 97.5948 151.074 97.5918C150.893 96.7386 150.683 95.631 150.482 94.3052C150.304 93.1358 150.134 91.7979 149.998 90.3187C149.893 89.2138 149.81 88.0293 149.76 86.7801C149.748 86.5163 149.735 86.2459 149.73 85.9761C149.69 84.721 149.684 83.4044 149.721 82.0386C149.827 77.3295 150.472 72.6479 151.645 68.0845C154.226 58.1934 159.863 47.7378 171.288 39.5838C171.288 39.5838 152.243 67.133 151.448 94.296C151.439 94.6213 151.433 94.9495 151.43 95.2748Z" fill="#D9647C"/>
<path d="M151.523 97.5948H151.356C151.23 96.5264 151.06 95.4283 150.857 94.299C150.618 93.0071 150.329 91.6751 150 90.3188C148.664 85.0857 146.996 79.9421 145.007 74.919C138.658 58.5311 129.989 43.0669 129.783 42.7016C140.511 53.2617 145.957 66.5133 148.717 77.5675C149.102 79.1049 149.435 80.5995 149.722 82.0386C149.935 83.1005 150.12 84.1316 150.286 85.1252C150.888 88.7342 151.202 91.8736 151.365 94.296C151.39 94.6364 151.412 94.965 151.43 95.2754C151.467 95.969 151.492 96.589 151.51 97.1259V97.1351C151.517 97.2942 151.52 97.4482 151.523 97.5948Z" fill="#D9647C"/>
<path d="M165.288 61.3586L153.413 94.345L152.248 97.5856C152.007 97.5919 151.767 97.5948 151.523 97.5948H151.504C151.504 97.4464 151.507 97.298 151.51 97.1345V97.1253C151.526 96.3427 151.563 95.3915 151.64 94.299C152.18 86.6513 154.665 72.1938 165.288 61.3586Z" fill="#FE869F"/>
<path d="M151.477 97.5948H151.313C151.233 97.5948 151.153 97.5948 151.075 97.5918C150.846 97.5918 150.618 97.5918 150.393 97.5856C149.786 96.5148 149.202 95.4438 148.642 94.3726C143.803 85.078 139.953 75.3058 137.155 65.2151C140.296 67.9931 142.949 71.2731 145.006 74.9201C147.106 78.6498 148.704 82.6376 149.761 86.7813C149.863 87.1772 149.958 87.5669 150.051 87.9506C150.054 87.9598 150.054 87.969 150.057 87.9782C150.551 90.0619 150.927 92.1715 151.183 94.2972C151.3 95.2668 151.377 96.1322 151.43 96.8656C151.45 97.1253 151.464 97.3678 151.477 97.5948Z" fill="#FE869F"/>
<path d="M11.3799 111.199C11.4169 111.482 11.5749 111.902 11.6122 112.186C10.7564 112.795 9.76869 113.196 8.72872 113.356C7.68875 113.516 6.62553 113.431 5.62466 113.107C4.62379 112.784 3.71324 112.231 2.9663 111.493C2.21936 110.756 1.65691 109.854 1.32422 108.86C0.991537 107.866 0.897916 106.809 1.05089 105.773C1.20387 104.737 1.59917 103.751 2.20498 102.894C2.81078 102.038 3.61016 101.335 4.53877 100.842C5.46737 100.35 6.49925 100.081 7.55133 100.058C7.65958 100.696 7.88325 101.355 7.9915 101.993C6.05306 102.216 4.19394 103.516 3.60167 105.367C3.0094 107.218 3.75973 109.452 5.43127 110.455C7.1028 111.458 9.54345 111.003 10.6257 109.386C10.7611 110.105 11.2845 110.473 11.3799 111.199Z" fill="#184F52"/>
<path d="M27.4756 117.007C25.5819 116.862 23.4884 116.78 21.284 116.777V117.358L20.2104 117.462V116.777C18.0059 116.78 15.9124 116.862 14.0184 117.007H4.271L4.83374 119.419C5.2095 120.866 11.7095 122.047 20.2107 122.06H21.2843C29.7854 122.047 36.2848 120.865 36.6612 119.419L37.2239 117.007H27.4756Z" fill="#184F52"/>
<path d="M37.2236 117.007C37.2236 117.258 37.0262 117.504 36.6591 117.74C34.7749 118.931 28.364 119.812 20.7472 119.812C13.1303 119.812 6.7194 118.931 4.83553 117.74C4.46842 117.502 4.271 117.258 4.271 117.007C4.271 115.457 11.6472 114.202 20.7472 114.202C29.8471 114.202 37.2236 115.457 37.2236 117.007Z" fill="#184F52"/>
<path d="M36.659 117.74C34.7748 118.931 28.364 119.811 20.7471 119.811C13.1302 119.811 6.71932 118.931 4.83545 117.74C6.71932 116.546 13.1305 115.665 20.7471 115.665C28.3637 115.665 34.7748 116.546 36.659 117.74Z" fill="#34BB9D"/>
<path d="M20.7473 98.8003L6.30615 98.1726L7.52021 105.987C7.72327 107.295 8.33225 108.506 9.26183 109.452C9.98314 110.186 10.5146 111.083 10.8105 112.066L12.3541 117.196C13.2589 119.332 28.3489 119.22 29.1401 117.196L30.6837 112.066C30.9796 111.083 31.5111 110.186 32.2324 109.452C33.162 108.506 33.7709 107.295 33.974 105.987L35.1881 98.1726L20.7473 98.8003Z" fill="#184F52"/>
<path d="M35.1881 98.1726C35.1881 98.5255 34.812 98.8632 34.1243 99.1701C31.9747 100.14 26.7943 100.821 20.747 100.821C14.6996 100.821 9.5192 100.139 7.36991 99.1701C6.68221 98.8632 6.30615 98.5255 6.30615 98.1726C6.30615 96.7118 12.7725 95.524 20.747 95.524C28.7214 95.524 35.1881 96.7118 35.1881 98.1726Z" fill="#042023"/>
<path d="M34.1245 99.1695C31.9749 100.139 26.7945 100.821 20.7472 100.821C14.6998 100.821 9.5194 100.138 7.37012 99.1695C9.5194 98.2026 14.7001 97.5214 20.7472 97.5214C26.7942 97.5214 31.9749 98.2032 34.1245 99.1695Z" fill="#C68930"/>
<path d="M23.8741 98.0417C23.1102 97.2713 22.584 96.2993 22.3578 95.2405C22.1317 94.1818 22.215 93.0807 22.598 92.0677C23.1805 90.5995 24.3576 89.453 25.5642 88.4264C26.7708 87.3998 28.0522 86.4242 28.9609 85.1302C29.8696 83.8362 30.3539 82.1229 29.7616 80.6585C30.9545 81.6195 30.9793 83.6493 30.4404 85.0807C29.9015 86.5121 28.7766 87.6354 27.6371 88.6593C26.4976 89.6833 25.2907 90.6793 24.4989 91.9878C23.3997 93.8063 23.0385 96.091 23.8741 98.0417Z" fill="#FE869F"/>
<path d="M19.4479 91.0078C18.2404 89.5082 18.5724 87.2594 19.5037 85.5766C20.4351 83.8938 21.8626 82.5324 22.8775 80.8977C23.8923 79.263 24.4512 77.1092 23.4832 75.4466C22.4549 73.6801 20.1506 73.1376 18.6621 71.7329C18.0545 71.1597 17.5934 70.4502 17.3173 69.6636C17.0412 68.877 16.958 68.0362 17.0747 67.2111C17.1915 66.3861 17.5047 65.6007 17.9883 64.9206C18.472 64.2405 19.112 63.6853 19.855 63.3014C18.3588 64.0371 17.8724 66.4966 18.2652 68.1109C18.658 69.7251 19.8118 71.0473 21.0554 72.1546C22.2989 73.2619 23.6797 74.2342 24.7518 75.5062C25.8239 76.7783 26.5772 78.4531 26.2623 80.0842C25.9784 81.556 24.8878 82.7384 23.7361 83.705C22.5844 84.6717 21.3071 85.5255 20.4112 86.7302C19.5153 87.9349 18.7119 89.6999 19.4479 91.0078Z" fill="#FE869F"/>
<path d="M17.0421 93.0222C17.2885 92.518 17.406 91.9611 17.3842 91.4009C17.3625 90.8406 17.2021 90.2944 16.9174 89.8106C16.355 88.8766 15.3807 88.2783 14.6056 87.5099C13.8305 86.7415 13.2269 85.5781 13.6778 84.5862C13.3905 84.917 13.1743 85.3027 13.0423 85.7197C12.9103 86.1367 12.8655 86.5761 12.9105 87.011C12.9956 87.9591 13.4406 88.8393 14.155 89.4723C14.7491 89.9937 15.4952 90.3143 16.1161 90.8037C16.737 91.2931 17.2145 92.2526 17.0421 93.0222Z" fill="#FE869F"/>
<path d="M18.6155 74.9697C17.5778 74.1104 16.3226 73.5516 14.9873 73.3546C17.224 74.3829 18.6709 77.1371 18.3954 79.5779C18.2704 80.6846 17.8288 81.7317 17.6293 82.8278C17.4297 83.9238 17.5138 85.1676 18.2961 85.9642C17.725 84.8545 18.1559 83.5009 18.7476 82.401C19.3393 81.3011 20.1036 80.2317 20.2113 78.9897C20.2738 78.2426 20.1623 77.4913 19.8855 76.7941C19.6087 76.0968 19.1741 75.4725 18.6155 74.9697Z" fill="#FE869F"/>
<path d="M43.0053 26.3853C42.9281 26.4251 42.8419 26.4651 42.7492 26.5019L41.8396 25.2008L41.2661 20.714C41.4728 20.6565 41.6896 20.6448 41.9013 20.6796C42.113 20.7143 42.3145 20.7948 42.4916 20.9152C42.6688 21.0357 42.8173 21.1933 42.9268 21.3769C43.0363 21.5606 43.1042 21.7658 43.1255 21.9783C43.1595 22.322 43.073 22.6689 43.0793 23.0126C43.0915 23.6201 43.3906 24.1819 43.5234 24.774C43.6561 25.3661 43.5481 26.109 43.0053 26.3853Z" fill="white"/>
<path d="M42.7486 26.6553C42.7236 26.6554 42.6991 26.6495 42.677 26.638C42.6549 26.6265 42.636 26.6098 42.6218 26.5894L41.7122 25.2883C41.698 25.2679 41.6889 25.2444 41.6857 25.2198L41.035 20.1414C41.0324 20.1214 41.0337 20.1011 41.039 20.0816C41.0443 20.0622 41.0534 20.0439 41.0658 20.028C41.0781 20.012 41.0935 19.9986 41.1111 19.9886C41.1287 19.9785 41.148 19.972 41.1681 19.9694C41.1882 19.9668 41.2086 19.9682 41.2282 19.9735C41.2477 19.9787 41.2661 19.9877 41.2821 20.0001C41.2982 20.0124 41.3116 20.0277 41.3217 20.0452C41.3318 20.0626 41.3383 20.0819 41.3409 20.1019L41.9869 25.1438L42.875 26.4143C42.8912 26.4373 42.9007 26.4643 42.9025 26.4923C42.9044 26.5202 42.8984 26.5482 42.8854 26.5731C42.8723 26.5979 42.8527 26.6188 42.8285 26.6333C42.8044 26.6478 42.7767 26.6554 42.7486 26.6553Z" fill="#E48B4B"/>
<path d="M55.7665 15.199L55.0549 13.9961C54.4886 14.2428 53.9826 14.6083 53.5712 15.0675C53.1598 15.5267 52.8528 16.0688 52.6712 16.6568C51.9725 18.7284 49.2715 28.5489 49.2715 28.5489L53.8232 28.9323L55.7665 15.199Z" fill="#C6D9C6"/>
<path d="M49.2707 51.8563V59.4888C49.2707 59.4888 40.9092 60.11 40.9092 59.4888C40.9092 58.8677 45.5018 57.4033 45.5018 57.4033L44.7884 51.8566L49.2707 51.8563Z" fill="#FEC8A6"/>
<path d="M56.4601 31.3007L45.1247 32.3837C43.8516 32.5057 42.6744 33.1104 41.8371 34.0726C40.9998 35.0347 40.5666 36.2806 40.6272 37.552L41.3265 52.1692C41.3265 52.1692 45.6588 53.857 51.4959 51.7854L50.1911 40.8909C50.1911 40.8909 53.2363 42.0418 57.9205 42.0418L56.4601 31.3007Z" fill="#041C1F"/>
<path d="M57.5668 12.7769L55.0554 13.9961L51.7422 31.7515L57.6598 31.1856L58.3159 13.2491L57.5668 12.7769Z" fill="#C6D9C6"/>
<path d="M54.2114 17.1578L52.6309 26.5999C52.5986 26.7934 52.8957 26.8765 52.9291 26.6815L54.5096 17.2394C54.5412 17.0459 54.2442 16.9628 54.2114 17.1578Z" fill="#9AB89A"/>
<path d="M54.135 52.864V60.4962C54.135 60.4962 45.7734 61.1174 45.7734 60.4962C45.7734 59.875 50.366 58.4106 50.366 58.4106L49.6527 52.864H54.135Z" fill="#FEC8A6"/>
<path d="M61.3239 32.3083L49.9885 33.3913C48.7156 33.5135 47.5387 34.1183 46.7016 35.0804C45.8645 36.0426 45.4313 37.2883 45.4919 38.5596L46.1913 53.1767C46.1913 53.1767 50.5235 54.8646 56.3606 52.793L55.0559 41.8984C55.0559 41.8984 58.1011 43.0494 62.7852 43.0494L61.3239 32.3083Z" fill="#07363B"/>
<path d="M73.6354 24.593C72.9157 31.3142 72.9157 38.0925 73.6354 44.8138C73.6354 44.8138 65.6055 47.2691 56.3594 43.104C56.3594 43.104 58.3906 35.0939 61.9481 30.3373L73.6354 24.593Z" fill="#C6D9C6"/>
<path d="M58.5454 12.6514L55.0562 16.6705L57.0993 19.9559L55.0562 21.076L59.1331 30.3379L60.4793 30.1438L59.2101 12.7772L58.5454 12.6514Z" fill="#F5FFF5"/>
<path d="M66.8037 12.7769C66.8037 12.7769 67.6205 12.0996 66.8037 10.8463C65.9868 9.59296 67.008 8.40758 66.4634 7.66234C65.9189 6.91711 64.8294 6.74764 64.5912 5.12183C64.3529 3.49602 62.9915 1.12467 59.5879 1.80224L60.2004 6.57847L62.894 12.3478L66.8037 12.7769Z" fill="#07363B"/>
<path d="M72.4639 14.6161L70.0122 30.3379L63.1387 29.184L61.9482 28.9846L62.1889 26.907L63.9249 11.9729L63.4179 11.8287L63.4304 11.8132C63.677 11.8379 64.334 11.8993 64.7348 11.9512C64.8839 11.9696 65.0492 11.9913 65.2314 12.0189C65.3638 12.0373 65.5057 12.0619 65.6569 12.0863C67.7159 12.418 69.7116 13.0618 71.5745 13.9952C71.622 14.0173 71.6683 14.0419 71.7132 14.0688C71.9834 14.2224 72.2353 14.406 72.4639 14.6161Z" fill="#C6D9C6"/>
<path d="M65.8062 14.03L63.1389 29.184L62.5898 32.3083L60.4003 31.9492L59.7344 12.8728L63.1758 12.1056L63.4192 11.8296L63.4317 11.8141C63.6784 11.8388 64.3353 11.9002 64.7361 11.9522C64.8853 11.9706 65.0505 11.9922 65.2327 12.0198C65.7075 12.4739 65.9141 13.41 65.8062 14.03Z" fill="#EFD945"/>
<path d="M62.0788 14.939C62.0562 14.9395 62.0336 14.9385 62.0111 14.936C61.522 14.9048 61.0599 14.7016 60.7075 14.3626C60.355 14.0236 60.1351 13.571 60.087 13.0856L59.8926 11.2158L59.7324 9.6998L62.2763 6.99011L62.9732 9.03796L64.0525 12.208C64.1613 12.5196 64.1933 12.8526 64.1456 13.1791C64.0979 13.5056 63.972 13.8158 63.7784 14.0836C63.5849 14.3515 63.3294 14.569 63.0336 14.7179C62.7378 14.8668 62.4103 14.9426 62.0788 14.939Z" fill="#FEC8A6"/>
<path d="M62.9732 9.03768C62.782 9.88472 62.4027 10.6825 61.678 11.0968C61.2278 11.3302 60.7097 11.3997 60.2135 11.2933C60.1052 11.2732 59.9981 11.2476 59.8926 11.2164L59.7324 9.70041L62.2763 6.99072L62.9732 9.03768Z" fill="#FE869F"/>
<path d="M68.3161 20.5451L62.895 27.9595L64.7359 11.9521C64.9918 11.9818 65.3026 12.026 65.658 12.0872L67.906 16.35L66.0571 17.5775L68.3161 20.5451Z" fill="#F5FFF5"/>
<path d="M61.324 2.66115L59.5877 1.80225C59.5877 1.80225 56.1316 2.08716 56.0932 6.336C56.0932 9.12997 57.0177 10.0868 56.5548 11.3882C56.092 12.6897 55.3241 13.6465 56.0932 14.7185C56.8623 15.7905 56.978 16.5939 56.6702 17.7805C56.5228 18.2479 56.4847 18.7426 56.5588 19.2269C56.633 19.7112 56.8173 20.1722 57.0979 20.5748C57.5932 21.2636 56.7949 23.2542 57.0979 23.943C57.4009 24.6319 58.5255 26.0205 60.8623 25.6644L59.8439 9.28163L61.324 2.66115Z" fill="#07363B"/>
<path d="M60.0941 3.70526C60.0941 3.70526 59.3485 4.76302 58.3411 4.87431C57.3337 4.98561 57.1482 6.28466 57.1482 6.28466C57.1482 6.28466 56.5279 10.4424 59.6533 11.0086C60.1506 11.1165 60.6702 11.0465 61.1208 10.811C63.1189 9.67488 62.4983 5.61718 62.4983 5.61718C62.4983 5.61718 62.1625 3.33427 60.0941 3.70526Z" fill="#FEC8A6"/>
<path d="M43.0916 26.0722C43.0379 25.849 43.048 25.6154 43.1208 25.3977C43.1936 25.18 43.3261 24.9869 43.5034 24.8402C43.8623 24.5523 44.2794 24.3448 44.7261 24.2318C45.1723 24.1194 45.6005 23.9454 45.9984 23.7151C46.3821 23.4105 46.7411 23.0763 47.072 22.7155C47.6106 22.2326 48.2669 21.8984 48.9755 21.7461C49.6841 21.5938 50.4205 21.6287 51.1114 21.8474C51.3965 22.7768 51.617 23.7246 51.7713 24.6841C49.5153 25.1848 47.3007 25.7855 45.0446 26.2868C44.4184 26.4265 43.5869 26.4746 43.0916 26.0722Z" fill="white"/>
<path d="M44.0811 25.5551L52.1098 23.6465L53.0525 33.3515L46.2265 33.8691L44.0811 25.5551Z" fill="#E4B14B"/>
<path d="M56.3593 28.326C56.3593 28.326 52.4165 26.1517 52.1935 26.5512C51.9704 26.9507 52.7288 27.9604 52.7288 27.9604C52.7288 27.9604 49.5184 27.4617 49.3845 27.9604C49.2506 28.459 51.9707 29.0362 51.9707 29.0362C51.9707 29.0362 49.0278 28.9472 48.9834 29.3924C48.939 29.8375 51.8815 30.0578 51.8815 30.0578C51.8815 30.0578 49.117 30.2798 49.2062 30.768C49.2953 31.2562 51.8815 31.0784 51.8815 31.0784C51.8815 31.0784 49.8304 31.4779 49.9643 32.0103C50.0982 32.5428 55.9836 31.3004 55.9836 31.3004L56.3593 28.326Z" fill="#FEC8A6"/>
<path d="M73.3118 28.3984C72.9168 29.5503 72.3253 30.6259 71.5633 31.5779C67.5391 36.4696 60.5207 35.9448 54.748 32.6671L56.0337 26.2716L62.189 26.907L69.448 27.6526C69.448 27.6526 68.2575 18.3446 71.5758 13.9961C71.6233 14.0182 71.6696 14.0427 71.7145 14.0697C71.9842 14.2231 72.2357 14.4064 72.4639 14.6161C73.9425 15.9264 76.4419 19.6214 73.3118 28.3984Z" fill="#C6D9C6"/>
<path d="M44.0815 25.5552C43.7172 25.7366 43.3049 25.7999 42.9026 25.736C42.5003 25.6721 42.1283 25.4843 41.8389 25.199L44.0815 33.0936C44.0815 33.0936 44.6341 34.1935 46.2269 33.87L44.0815 25.5552Z" fill="#E48B4B"/>
<path d="M60.4019 7.15659C60.4019 7.2076 60.4171 7.25747 60.4455 7.29988C60.474 7.34229 60.5145 7.37535 60.5618 7.39487C60.6092 7.41439 60.6613 7.4195 60.7116 7.40955C60.7618 7.39959 60.808 7.37503 60.8443 7.33896C60.8805 7.30289 60.9052 7.25694 60.9152 7.20691C60.9252 7.15688 60.9201 7.10502 60.9004 7.05789C60.8808 7.01077 60.8476 6.97049 60.805 6.94215C60.7624 6.91381 60.7123 6.89868 60.661 6.89868C60.627 6.89868 60.5933 6.90535 60.5618 6.91831C60.5304 6.93127 60.5018 6.95027 60.4778 6.97422C60.4537 6.99817 60.4346 7.0266 60.4216 7.05789C60.4086 7.08918 60.4019 7.12272 60.4019 7.15659Z" fill="#07363B"/>
<path d="M57.7666 7.15659C57.7666 7.2076 57.7818 7.25747 57.8103 7.29988C57.8388 7.34229 57.8792 7.37535 57.9266 7.39487C57.9739 7.41439 58.026 7.4195 58.0763 7.40955C58.1266 7.39959 58.1728 7.37503 58.209 7.33896C58.2453 7.30289 58.2699 7.25694 58.2799 7.20691C58.2899 7.15688 58.2848 7.10502 58.2652 7.05789C58.2456 7.01077 58.2124 6.97049 58.1697 6.94215C58.1271 6.91381 58.077 6.89868 58.0258 6.89868C57.9917 6.89868 57.958 6.90535 57.9266 6.91831C57.8951 6.93127 57.8666 6.95027 57.8425 6.97422C57.8184 6.99817 57.7993 7.0266 57.7863 7.05789C57.7733 7.08918 57.7666 7.12272 57.7666 7.15659Z" fill="#07363B"/>
<path d="M58.9251 7.15036C58.9701 6.95774 59.2674 7.03936 59.2233 7.23198C59.0972 7.76426 59.1015 8.3189 59.2358 8.84918C59.2412 8.86867 59.2427 8.88902 59.2402 8.90908C59.2376 8.92913 59.2312 8.9485 59.2211 8.96607C59.2111 8.98364 59.1977 8.99907 59.1817 9.01147C59.1656 9.02388 59.1473 9.03303 59.1277 9.03839C59.1081 9.04374 59.0877 9.04521 59.0675 9.04271C59.0474 9.0402 59.0279 9.03377 59.0103 9.02378C58.9926 9.01379 58.9771 9.00043 58.9646 8.98448C58.9522 8.96853 58.943 8.95029 58.9376 8.9308C58.7908 8.34681 58.7865 7.73634 58.9251 7.15036Z" fill="#FE869F"/>
<path d="M57.4336 6.21446C57.5862 6.09008 57.7746 6.01729 57.9716 6.00662C58.1685 5.99594 58.3638 6.04795 58.529 6.1551C58.6942 6.26343 58.54 6.52935 58.3736 6.42013C58.2672 6.34648 58.1402 6.30804 58.0106 6.31028C57.881 6.31252 57.7554 6.35531 57.6516 6.4326C57.4972 6.5528 57.2771 6.33733 57.4336 6.21446Z" fill="#07363B"/>
<path d="M60.2512 6.08609C60.4267 5.99496 60.6232 5.95162 60.821 5.96048C61.0187 5.96934 61.2105 6.03008 61.377 6.13654C61.5437 6.24309 61.3893 6.50871 61.2214 6.40157C61.1023 6.32192 60.9642 6.27526 60.821 6.2664C60.6779 6.25753 60.5349 6.28677 60.4069 6.35112C60.2295 6.43986 60.0735 6.17483 60.2512 6.08609Z" fill="#07363B"/>
<path d="M60.6611 9.04028L58.6714 9.35191C58.6714 9.35191 59.2762 10.2788 59.9514 10.1408C60.6265 10.0028 60.6611 9.04028 60.6611 9.04028Z" fill="white"/>
<path d="M73.2387 29.2199C72.018 32.324 69.0692 34.1917 65.8654 34.7648C62.1251 35.4338 58.3255 34.2262 54.9684 32.6633C55.2891 30.6105 55.6098 28.5575 55.9305 26.5043L69.425 28.0179C69.555 28.0325 69.5965 27.9051 69.5553 27.8102C69.5859 27.7952 69.6105 27.7704 69.6253 27.7399C69.64 27.7093 69.6441 27.6747 69.6367 27.6416C69.0304 24.6266 69.1164 21.5143 69.8881 18.537C69.899 18.4976 69.8937 18.4556 69.8735 18.4201C69.8532 18.3846 69.8196 18.3586 69.78 18.3478C69.7405 18.337 69.6982 18.3422 69.6626 18.3624C69.6269 18.3826 69.6008 18.416 69.5899 18.4554C68.8083 21.4793 68.7212 24.6396 69.3352 27.7016L55.8258 26.1858C55.8065 26.1801 55.7863 26.1779 55.7661 26.1793H55.7554C55.617 26.1639 55.5789 26.3084 55.634 26.4049C55.3088 28.4868 54.9836 30.5687 54.6585 32.6508C54.6549 32.6728 54.6558 32.6953 54.6612 32.717C54.6533 32.7325 54.6487 32.7496 54.6477 32.767C54.6467 32.7844 54.6493 32.8018 54.6554 32.8181C54.6615 32.8345 54.671 32.8494 54.6832 32.8619C54.6954 32.8744 54.71 32.8843 54.7262 32.8909C58.2414 34.5369 62.0327 35.673 65.945 35.0619C69.2553 34.5446 72.2942 32.4552 73.5342 29.3042C73.6088 29.1169 73.3105 29.0383 73.2387 29.2199Z" fill="#9AB89A"/>
<path d="M65.2427 39.7981C64.7264 39.4084 64.3086 38.9041 64.0226 38.3254C63.7367 37.7466 63.5905 37.1094 63.5956 36.4645C63.5956 36.4238 63.5794 36.3848 63.5505 36.356C63.5216 36.3273 63.4823 36.3111 63.4415 36.3111C63.4006 36.3111 63.3614 36.3273 63.3324 36.356C63.3035 36.3848 63.2873 36.4238 63.2873 36.4645C63.2813 37.1497 63.4351 37.827 63.7365 38.4431C64.038 39.0591 64.479 39.5972 65.0247 40.015C65.1798 40.1346 65.3999 39.9192 65.2427 39.7981Z" fill="#9AB89A"/>
<path d="M106.922 60.7722V68.4047C106.922 68.4047 115.283 69.0258 115.283 68.4047C115.283 67.7835 110.691 66.3191 110.691 66.3191L111.404 60.7722H106.922Z" fill="#FEC8A6"/>
<path d="M101.805 61.8928V69.5251C101.805 69.5251 110.166 70.1462 110.166 69.5251C110.166 68.9039 105.574 67.4395 105.574 67.4395L106.287 61.8928H101.805Z" fill="#FEC8A6"/>
<path d="M108.199 25.9656L109.407 26.8043L111.103 40.3895H107.988L105.986 26.8043L108.199 25.9656Z" fill="#FEC8A6"/>
<path d="M91.4442 35.063L87.6204 36.1291C87.6204 36.1291 86.7734 43.4129 98.7712 45.5329L95.2522 63.9656C96.3899 64.8395 97.7209 65.4304 99.1344 65.6891C100.548 65.9477 102.003 65.8666 103.379 65.4525C108.096 64.0202 112.31 64.225 114.572 64.9411C116.833 65.6573 119.506 64.9411 119.506 64.9411L114.161 44.7891C114.161 44.7891 112.588 39.1629 107.618 36.9123L91.4442 35.063Z" fill="#07363B"/>
<path d="M100.912 3.67521C100.912 3.67521 102.229 1.06346 102.773 1.3466C103.318 1.62973 101.359 3.28641 100.912 3.67521Z" fill="#07363B"/>
<path d="M101.213 2.85285C101.213 2.86828 101.211 2.88075 101.211 2.89589C101.203 3.19401 101.133 3.48722 101.003 3.75603C100.873 4.02483 100.688 4.26308 100.458 4.45492C100.209 4.61972 99.9171 4.7094 99.6179 4.71319C99.3187 4.71698 99.0247 4.63472 98.7713 4.47629C98.7415 4.45789 98.7117 4.43949 98.6849 4.42109C98.433 4.2311 98.2322 3.98208 98.1004 3.6962C97.9686 3.41032 97.9099 3.09644 97.9295 2.78251C97.9481 2.41005 98.0748 2.05094 98.2942 1.74864C98.5137 1.44635 98.8164 1.21383 99.1659 1.07924C99.5208 0.96169 99.906 0.972655 100.254 1.1102C100.601 1.24774 100.889 1.50302 101.066 1.83101C101.201 2.15371 101.252 2.50527 101.213 2.85285Z" fill="#07363B"/>
<path d="M101.214 2.85291C101.214 2.86834 101.211 2.8808 101.211 2.89594C101.204 3.19406 101.133 3.48727 101.003 3.75608C100.873 4.02489 100.688 4.26313 100.458 4.45497C100.209 4.61977 99.9172 4.70945 99.618 4.71324C99.3188 4.71703 99.0249 4.63477 98.7715 4.47634C98.8479 4.33658 98.9399 4.20585 99.0459 4.08666C99.6114 3.44805 100.374 3.01415 101.214 2.85291Z" fill="#EFD945"/>
<path d="M109.407 26.8055C109.407 26.8055 108.488 27.8398 106.542 27.7202C106.09 27.6947 105.645 27.6037 105.219 27.4501L103.714 15.1224C104.205 15.3691 104.675 15.6543 105.12 15.9753C105.498 16.2463 105.852 16.547 106.181 16.8746L106.185 16.8779C106.859 17.7296 107.373 18.6968 107.699 19.7318C108.467 22.1165 109.407 26.8055 109.407 26.8055Z" fill="#FE869F"/>
<path d="M107.618 36.9115C96.918 40.2106 87.6206 36.1289 87.6206 36.1289C87.6206 36.1289 87.9999 31.6853 88.6197 27.2569C88.6381 27.1462 88.6536 27.0358 88.6692 26.9254C89.4678 22.6781 91.793 17.0251 92.8443 14.5977C92.8891 14.4913 92.946 14.3904 93.0136 14.2968C93.7162 14.0339 94.4484 13.8577 95.1939 13.772C95.2124 13.7691 95.2309 13.7658 95.2536 13.7628C95.3648 13.7507 95.482 13.7415 95.5989 13.7332L99.5739 14.9945L102.886 14.8503C102.971 14.8465 103.057 14.8475 103.142 14.8532C103.287 14.9147 103.44 14.9883 103.607 15.0681C103.644 15.0865 103.678 15.1049 103.715 15.1233C104.206 15.3701 104.676 15.6553 105.121 15.9763C105.166 16.1026 105.196 16.2334 105.211 16.3663L106.543 27.7211L107.618 36.9115Z" fill="#FE869F"/>
<path d="M105.658 22.3549L103.98 17.7633C103.913 17.579 103.615 17.6585 103.682 17.8449L105.359 22.4365C105.428 22.6208 105.726 22.5413 105.658 22.3549Z" fill="#D9647C"/>
<path d="M98.4668 21.2273L99.759 20.5397C99.759 20.5397 104.344 20.6444 105.38 22.9932V23.7331L100.298 23.0826L98.4668 21.2273Z" fill="white"/>
<path d="M105.38 22.9932C105.38 22.9932 103.934 20.4705 105.768 19.2487L107.132 19.6642L106.931 20.8154L106.229 23.7833L105.38 22.9932Z" fill="white"/>
<path d="M98.1203 21.0801L104.443 22.9671L103.378 31.3534L97.3076 29.5837L98.1203 21.0801Z" fill="#0B919D"/>
<path d="M104.444 22.9671C104.444 22.9671 105.508 23.1369 106.186 22.7855L105.072 31.3532C105.072 31.3532 104.444 32.0192 103.379 31.3532L104.444 22.9671Z" fill="#0B919D"/>
<path d="M106.186 22.7855L107.349 19.438L106.045 29.4591L105.072 31.3535L106.186 22.7855Z" fill="#0B919D"/>
<path d="M86.6647 24.593L85.5445 25.4881C85.5445 25.4881 84.1975 30.8249 86.8701 32.3593C89.6162 33.9359 95.7095 31.5562 99.0078 28.7136L98.7719 26.3238L92.7087 27.7633L92.2674 25.8125L86.6647 24.593Z" fill="#FEC8A6"/>
<path d="M95.9405 14.5455L92.709 27.7621C91.3254 27.8758 89.9332 27.7034 88.6198 27.2558C87.4836 26.8834 86.4369 26.2815 85.5454 25.4878C86.2337 22.7024 88.1167 19.2712 89.6287 16.9996C90.4332 15.7795 91.6011 14.8404 92.9687 14.314L93.0138 14.2968C93.7163 14.0339 94.4485 13.8577 95.1941 13.772L95.481 14.0667C95.4867 14.0704 95.491 14.0758 95.4932 14.0822L95.9405 14.5455Z" fill="#FE869F"/>
<path d="M103.608 15.0678C103.429 15.4792 102.778 16.2496 100.441 16.2496C98.1217 16.1309 96.7156 15.2613 95.9414 14.5463C95.7832 14.4008 95.6338 14.246 95.4941 14.0828C95.4918 14.0765 95.4875 14.0712 95.4819 14.0676C95.4005 13.9703 95.3243 13.8688 95.2534 13.7637C95.3647 13.7512 95.4819 13.742 95.5991 13.734C95.996 13.7051 96.3944 13.7009 96.7919 13.7216L98.2198 13.8352L99.0677 11.6072L99.6137 10.177L99.6599 10.0541L99.7431 10.1248L101.89 11.9753L101.566 13.667L101.439 14.3285L102.198 14.4941C102.52 14.5933 102.835 14.7133 103.141 14.8532C103.288 14.9144 103.441 14.9883 103.608 15.0678Z" fill="#FEC8A6"/>
<path d="M101.89 11.9729L101.566 13.6646C101.474 13.6554 101.378 13.6399 101.283 13.6215C99.7963 13.2105 99.2443 12.3634 99.0684 11.6054L99.6144 10.1752L99.6573 10.3533L99.7438 10.123L101.89 11.9729Z" fill="#FE869F"/>
<path d="M105.748 9.69828C105.931 9.40427 106.084 9.09218 106.203 8.76696C106.377 8.28963 106.452 7.78241 106.425 7.27548C106.398 6.76856 106.268 6.2723 106.044 5.81626C105.82 5.36022 105.506 4.95373 105.121 4.62099C104.735 4.28824 104.287 4.03605 103.801 3.87943C103.154 3.63563 102.457 3.55349 101.771 3.64022C101.085 3.72694 100.43 3.97987 99.8649 4.37685C97.6062 5.90561 97.8072 9.56087 99.6642 10.4314L105.748 9.69828Z" fill="#07363B"/>
<path d="M101.942 12.8891C98.8997 12.0498 99.7684 9.38225 99.7684 9.38225C99.5821 9.3379 99.4083 9.2525 99.2596 9.13235C99.1814 9.06551 99.1183 8.98279 99.0748 8.88973C99.0313 8.79667 99.0083 8.69543 99.0073 8.59279C99.0094 8.49014 99.0444 8.39083 99.1072 8.3094C99.1701 8.22796 99.2574 8.16867 99.3565 8.14019C99.446 8.12635 99.5374 8.13523 99.6225 8.166C99.7075 8.19677 99.7833 8.24843 99.8429 8.31618C99.9603 8.45319 100.05 8.61153 100.107 8.78244L100.316 9.62206L101.49 6.44641L101.832 7.86625L105.278 8.60496L106.158 7.43561C106.158 7.43561 105.797 13.6382 101.942 12.8891Z" fill="#FEC8A6"/>
<path d="M98.2642 27.3846L98.7711 26.3238C98.7711 26.3238 98.8412 24.7509 99.2903 24.6618C99.6819 24.5841 99.6184 26.0045 99.6184 26.0045C99.6184 26.0045 101.867 24.7476 102.114 24.9622C102.36 25.1768 100.666 26.5408 100.666 26.5408C100.666 26.5408 102.421 25.6581 102.606 25.8389C102.791 26.0196 101.143 27.246 101.143 27.246C101.143 27.246 102.853 26.6414 102.976 26.9056C103.1 27.1697 101.067 28.2114 101.067 28.2114C101.067 28.2114 102.731 27.8128 102.854 27.9814C102.977 28.15 101.342 29.1517 98.7711 28.9116L98.2642 27.3846Z" fill="#FEC8A6"/>
<path d="M94.7936 17.2349C93.3756 20.8017 91.7005 24.2618 89.7813 27.5882C89.7607 27.6233 89.7549 27.6652 89.7653 27.7045C89.7757 27.7439 89.8013 27.7776 89.8366 27.7981C89.872 27.8187 89.914 27.8244 89.9536 27.8141C89.9932 27.8038 90.027 27.7782 90.0476 27.7431C91.979 24.3925 93.6646 20.9074 95.0912 17.3151C95.1642 17.1323 94.866 17.053 94.7936 17.2349Z" fill="#D9647C"/>
<path d="M102.23 9.53506C102.218 9.58463 102.191 9.62949 102.153 9.66399C102.115 9.69848 102.068 9.72106 102.018 9.72886C101.967 9.73665 101.915 9.72932 101.869 9.70779C101.822 9.68626 101.783 9.6515 101.756 9.6079C101.73 9.5643 101.717 9.51383 101.719 9.46286C101.721 9.41189 101.739 9.36272 101.769 9.32156C101.799 9.28041 101.841 9.24912 101.889 9.23165C101.937 9.21419 101.99 9.21133 102.039 9.22344C102.072 9.23144 102.104 9.24585 102.131 9.26585C102.159 9.28585 102.182 9.31104 102.199 9.33998C102.217 9.36893 102.229 9.40106 102.234 9.43453C102.239 9.46801 102.238 9.50217 102.23 9.53506Z" fill="#07363B"/>
<path d="M104.79 10.1571C104.778 10.2067 104.751 10.2516 104.714 10.2861C104.676 10.3206 104.629 10.3431 104.578 10.3509C104.527 10.3587 104.476 10.3514 104.429 10.3299C104.383 10.3083 104.344 10.2736 104.317 10.23C104.29 10.1864 104.277 10.1359 104.28 10.0849C104.282 10.034 104.299 9.98479 104.329 9.94363C104.36 9.90248 104.402 9.87119 104.45 9.85372C104.498 9.83626 104.55 9.8334 104.6 9.84551C104.667 9.86174 104.724 9.90368 104.76 9.96212C104.796 10.0206 104.807 10.0907 104.79 10.1571Z" fill="#07363B"/>
<path d="M103.666 9.87755C103.669 9.67989 103.36 9.68909 103.358 9.88675C103.353 10.4336 103.217 10.9713 102.96 11.4547C102.868 11.6304 103.139 11.7812 103.229 11.6031C103.511 11.0708 103.661 10.4792 103.666 9.87755Z" fill="#FE869F"/>
<path d="M105.338 9.32198C105.219 9.16503 105.054 9.04969 104.865 8.99265C104.676 8.93561 104.474 8.93983 104.288 9.00471C104.101 9.07119 104.188 9.3659 104.376 9.29883C104.497 9.25232 104.629 9.24492 104.755 9.27769C104.88 9.31046 104.992 9.38172 105.074 9.48135C105.196 9.63509 105.46 9.47749 105.338 9.32198Z" fill="#07363B"/>
<path d="M102.632 8.53015C102.483 8.40027 102.302 8.31185 102.108 8.27385C101.914 8.23586 101.713 8.24963 101.526 8.31379C101.339 8.3776 101.426 8.67231 101.616 8.60791C101.75 8.55865 101.896 8.54595 102.037 8.57109C102.178 8.59623 102.31 8.65831 102.419 8.75096C102.568 8.87947 102.783 8.65925 102.632 8.53015Z" fill="#07363B"/>
<path d="M101.195 10.6982C101.245 10.9753 101.375 11.2321 101.569 11.4373C101.762 11.6425 102.012 11.7873 102.287 11.8542C102.128 11.8777 101.966 11.8641 101.814 11.8145C101.662 11.7649 101.523 11.6806 101.409 11.5684C101.306 11.4508 101.233 11.3105 101.196 11.1591C101.159 11.0078 101.159 10.8497 101.195 10.6982Z" fill="white"/>
<path d="M148.28 115.113C147.894 112.56 139.765 109.414 134.077 109.337C128.39 109.26 123.083 109.337 123.083 109.337V110.533C121.164 110.527 118.777 110.533 116.317 110.565C110.629 110.642 102.5 113.787 102.115 116.34C101.602 119.733 105.15 121.158 105.15 121.158L113.524 122.15L127.311 119.618V119.167L136.87 120.922L145.245 119.931C145.245 119.931 148.792 118.506 148.28 115.113Z" fill="#07363B"/>
<path d="M137.288 109.798C129.425 117.213 110.768 111.588 110.768 111.588L114.728 88.1136L120.547 86.085C120.427 85.6924 120.318 85.3119 120.226 84.9436C118.733 79.0544 120.661 76.4519 122.647 75.7553C122.745 75.7209 122.848 75.6972 122.952 75.6847C123.928 75.5518 124.922 75.6282 125.866 75.9087C127.849 76.5041 129.554 78.0263 129.656 80.5683C129.774 82.9193 129.076 85.2391 127.679 87.1386L131.892 88.765L137.288 109.798Z" fill="#EFD945"/>
<path d="M130.274 88.1403C130.274 88.1403 133.572 88.9399 134.181 90.3959C134.79 91.852 137.716 101.711 137.716 101.711C137.716 101.711 139.76 106.579 135.014 106.529L134.47 102.608L135.096 101.247L130.274 88.1403Z" fill="#EFD945"/>
<path d="M132.812 91.7635C132.773 91.5694 132.476 91.6516 132.514 91.8448C133.167 95.0959 133.82 98.3468 134.473 101.598C134.513 101.791 134.81 101.709 134.772 101.516C134.118 98.265 133.465 95.0142 132.812 91.7635Z" fill="#EF9D45"/>
<path d="M128.273 83.4851C128.017 84.9171 127.32 86.2344 126.278 87.2544C126.065 87.4621 125.831 87.6463 125.578 87.8037C124.024 87.0152 123.284 85.9532 122.935 85.048C122.696 84.4573 122.596 83.8202 122.642 83.1851L123.114 83.0287L128.273 83.4851Z" fill="#EF9D45"/>
<path d="M126.279 87.2544C126.066 87.462 125.831 87.6462 125.579 87.8037C124.025 87.0149 123.285 85.9533 122.936 85.0477L122.952 84.8516L123.035 83.8386L126.091 85.2166L126.23 86.7175L126.279 87.2544Z" fill="#FEC8A6"/>
<path d="M127.865 99.6896L129.157 99.0022C129.157 99.0022 133.742 99.1067 134.778 101.455V102.195L129.696 101.545L127.865 99.6896Z" fill="white"/>
<path d="M134.778 101.455C134.778 101.455 133.332 98.9322 135.165 97.7106L136.53 98.1261L136.331 99.2773L135.628 102.245L134.778 101.455Z" fill="white"/>
<path d="M127.518 99.5424L133.841 101.429L132.776 109.816L126.706 108.046L127.518 99.5424Z" fill="#0B919D"/>
<path d="M133.842 101.429C133.842 101.429 134.906 101.599 135.584 101.248L134.47 109.816C134.47 109.816 133.842 110.482 132.777 109.816L133.842 101.429Z" fill="#075E66"/>
<path d="M135.584 101.247L136.747 97.8997L135.443 107.921L134.47 109.815L135.584 101.247Z" fill="#075E66"/>
<path d="M126.23 86.7175C125.949 86.8 125.658 86.8434 125.365 86.8463C124.005 86.8739 123.302 85.9624 122.949 84.8516L123.032 83.8386L126.088 85.2166L126.23 86.7175Z" fill="#FE869F"/>
<path d="M128.674 80.6832C128.665 82.8958 128.026 86.0322 125.217 86.0848C123.01 86.1275 122.531 83.7001 122.485 81.957C122.473 81.5559 122.481 81.1544 122.509 80.7541C122.617 79.3025 124.239 78.0412 125.82 77.7987C125.82 77.7987 127.491 78.1608 128.274 79.342C128.543 79.7377 128.682 80.2059 128.674 80.6832Z" fill="#FEC8A6"/>
<path d="M128.273 79.342C128.191 79.509 128.071 79.6542 127.921 79.7655C127.471 80.097 126.86 80.0754 126.302 80.051C125.744 80.0267 125.124 80.0234 124.696 80.3823C124.398 80.631 124.245 81.0085 123.999 81.3091C123.727 81.6389 123.347 81.8628 122.925 81.9413C122.78 81.9694 122.631 81.9746 122.484 81.9567C122.472 81.5556 122.48 81.1541 122.509 80.7538C122.617 79.3022 124.239 78.0409 125.819 77.7984C125.818 77.7984 127.49 78.1605 128.273 79.342Z" fill="#07363B"/>
<path d="M125.92 104.899L126.648 103.974C126.648 103.974 127.061 102.455 127.519 102.466C127.918 102.475 127.545 103.847 127.545 103.847C127.545 103.847 130.016 103.109 130.209 103.372C130.402 103.636 128.449 104.599 128.449 104.599C128.449 104.599 130.358 104.119 130.497 104.335C130.636 104.552 128.761 105.391 128.761 105.391C128.761 105.391 130.562 105.172 130.624 105.456C130.686 105.74 128.474 106.317 128.474 106.317C128.474 106.317 130.185 106.289 130.268 106.48C130.351 106.671 128.536 107.294 126.079 106.501L125.92 104.899Z" fill="#FEC8A6"/>
<path d="M117.765 87.0544C117.759 92.5097 118.063 98.8877 118.214 100.144C118.263 100.548 118.298 100.956 118.36 101.358C118.537 102.486 120.597 103.112 121.285 102.405C121.477 102.168 121.752 102.012 122.055 101.97C122.686 101.949 123.113 102.775 123.742 102.726C124.165 102.694 124.443 102.281 124.815 102.079C124.958 102.01 125.112 101.97 125.27 101.961C125.428 101.953 125.586 101.975 125.735 102.028C125.884 102.08 126.021 102.161 126.138 102.267C126.255 102.373 126.35 102.5 126.417 102.643V107.29C126.258 107.706 125.539 107.749 125.126 107.577C124.713 107.405 124.326 107.105 123.878 107.116C123.186 107.132 122.635 107.89 121.95 107.785C121.488 107.714 121.16 107.264 120.701 107.171C120.204 107.07 119.74 107.408 119.283 107.626C118.931 107.817 118.526 107.887 118.13 107.827C117.733 107.766 117.368 107.577 117.09 107.29C117.09 107.29 110.871 107.546 109.895 103.3C108.918 99.0551 111.796 89.4946 114.726 88.1115L117.765 87.0544Z" fill="#EFD945"/>
<path d="M124.176 86.8463L123.796 93.4199C123.794 93.4591 123.777 93.4959 123.748 93.5228C123.719 93.5497 123.681 93.5645 123.642 93.5641H123.636C123.616 93.5631 123.596 93.5581 123.577 93.5493C123.559 93.5405 123.543 93.5282 123.529 93.5131C123.516 93.4979 123.505 93.4803 123.499 93.4611C123.492 93.442 123.49 93.4217 123.491 93.4015L123.883 86.5516C123.972 86.6498 124.071 86.7481 124.176 86.8463Z" fill="#07363B"/>
<path d="M123.664 94.1402C124.013 94.1402 124.296 93.8588 124.296 93.5116C124.296 93.1644 124.013 92.883 123.664 92.883C123.316 92.883 123.033 93.1644 123.033 93.5116C123.033 93.8588 123.316 94.1402 123.664 94.1402Z" fill="#07363B"/>
<path d="M127.861 93.4118C127.861 93.5362 127.824 93.6577 127.755 93.761C127.685 93.8643 127.587 93.9449 127.471 93.9924C127.356 94.0399 127.229 94.0523 127.106 94.028C126.984 94.0037 126.871 93.9438 126.783 93.8559C126.695 93.768 126.635 93.656 126.61 93.5341C126.586 93.4121 126.598 93.2858 126.646 93.1709C126.694 93.0561 126.775 92.9579 126.879 92.8889C126.983 92.8198 127.105 92.783 127.23 92.783C127.313 92.783 127.395 92.7992 127.472 92.8308C127.548 92.8624 127.618 92.9088 127.677 92.9672C127.735 93.0256 127.782 93.0949 127.813 93.1712C127.845 93.2475 127.861 93.3293 127.861 93.4118Z" fill="#07363B"/>
<path d="M127.384 92.8643C127.389 92.9046 127.378 92.9452 127.353 92.9773C127.328 93.0095 127.292 93.0306 127.251 93.0362H127.23C127.192 93.036 127.156 93.0221 127.129 92.9972C127.101 92.9723 127.083 92.9381 127.079 92.9011L126.33 87.2054C126.426 87.1153 126.518 87.02 126.604 86.9199L127.384 92.8643Z" fill="#07363B"/>
<path d="M123.835 116.154L134.846 114.131C136.673 113.796 138.56 114.024 140.253 114.785C141.946 115.546 143.365 116.804 144.319 118.391L145.246 119.931C139.494 122.365 131.113 122.673 123.537 121.83C123.046 119.953 123.15 117.97 123.835 116.154Z" fill="#07363B"/>
<path d="M114.583 117.854L123.834 116.154C123.148 117.97 123.044 119.953 123.536 121.831C121.199 121.575 118.878 121.195 116.583 120.692C116.583 120.692 115.191 123.991 114.582 123.761C113.973 123.531 114.583 117.854 114.583 117.854Z" fill="#FEC8A6"/>
<path d="M126.56 117.382L115.549 115.359C113.722 115.023 111.835 115.251 110.142 116.012C108.449 116.774 107.03 118.032 106.076 119.618L105.149 121.158C110.901 123.592 119.282 123.901 126.858 123.058C127.349 121.181 127.245 119.198 126.56 117.382Z" fill="#07363B"/>
<path d="M135.811 119.081L126.56 117.382C127.245 119.198 127.35 121.181 126.858 123.058C129.195 122.802 131.515 122.422 133.811 121.92C133.811 121.92 135.203 125.219 135.812 124.989C136.421 124.759 135.811 119.081 135.811 119.081Z" fill="#FEC8A6"/>
<path d="M143.122 113.094C136.839 112.951 130.564 113.652 124.469 115.179C124.439 115.185 124.413 115.2 124.393 115.223C124.373 115.246 124.361 115.275 124.36 115.305C124.329 115.315 124.302 115.335 124.284 115.362L123.443 116.596C123.438 116.605 123.434 116.614 123.431 116.624C117.613 115.164 111.581 114.736 105.614 115.36C105.418 115.381 105.416 115.687 105.614 115.667C112.518 114.943 119.498 115.633 126.123 117.696C126.314 117.755 126.394 117.459 126.205 117.399C125.39 117.145 124.569 116.912 123.743 116.7L124.549 115.516C124.559 115.502 124.565 115.486 124.569 115.469C130.632 113.953 136.872 113.257 143.122 113.4C143.161 113.397 143.197 113.38 143.223 113.352C143.25 113.323 143.264 113.286 143.265 113.247C143.265 113.209 143.25 113.171 143.224 113.143C143.197 113.115 143.161 113.097 143.122 113.094Z" fill="#075E66"/>
<path d="M126.572 102.576C126.573 102.539 126.559 102.503 126.534 102.476C126.509 102.449 126.475 102.433 126.438 102.431C126.302 102.23 126.126 102.06 125.921 101.93C125.716 101.799 125.487 101.712 125.247 101.672C124.357 101.558 123.832 102.124 123.042 102.407C122.152 102.725 121.433 101.331 120.701 101.009C120.461 100.921 120.198 100.917 119.955 100.998C119.797 101.053 119.648 101.133 119.513 101.233L119.322 101.365C119.001 101.65 118.633 101.597 118.219 101.205C118.219 101.192 118.218 101.18 118.216 101.168C118.185 97.9377 118.154 94.7078 118.124 91.478C118.124 91.4373 118.107 91.3982 118.079 91.3695C118.05 91.3407 118.01 91.3245 117.97 91.3245C117.929 91.3245 117.889 91.3407 117.861 91.3695C117.832 91.3982 117.815 91.4373 117.815 91.478C117.846 94.7486 117.877 98.0194 117.908 101.29V101.293C117.9 101.768 118.32 101.996 118.781 101.962C119.111 101.884 119.416 101.724 119.668 101.498C120.443 100.958 121.022 101.518 121.507 102.04C121.961 102.53 122.44 102.836 123.123 102.703C123.488 102.584 123.831 102.409 124.141 102.185C124.481 101.978 124.888 101.911 125.277 101.999C125.665 102.086 126.004 102.32 126.221 102.652C126.233 102.668 126.247 102.682 126.264 102.693L126.311 107.87C125.237 108.149 124.423 106.687 123.296 107.215C122.565 107.559 121.847 108.373 121.03 107.607C120.783 107.374 120.529 107.082 120.157 107.082C119.666 107.082 119.319 107.546 118.886 107.715C118.189 107.987 116.941 107.474 116.238 107.319C114.881 107.019 112.798 106.922 111.889 105.733C111.77 105.578 111.502 105.73 111.623 105.888C112.417 106.926 113.766 107.087 114.969 107.353L117.641 107.942C118.258 108.079 118.84 108.15 119.4 107.804C119.725 107.604 119.946 107.252 120.416 107.473C120.702 107.608 120.857 107.948 121.135 108.099C121.31 108.201 121.508 108.258 121.711 108.264C121.914 108.27 122.115 108.224 122.296 108.133C122.56 107.998 122.816 107.848 123.062 107.683C123.683 107.287 124.223 107.432 124.821 107.785C125.338 108.09 125.833 108.339 126.421 108.158C126.444 108.166 126.468 108.168 126.491 108.165C126.515 108.161 126.537 108.152 126.556 108.138C126.576 108.125 126.591 108.106 126.602 108.085C126.613 108.064 126.618 108.041 126.618 108.017C126.604 106.203 126.588 104.389 126.572 102.576Z" fill="#EF9D45"/>
<path d="M117.404 108.275C117.372 108.926 117.159 109.555 116.789 110.092C116.419 110.63 115.905 111.054 115.306 111.317C115.125 111.398 115.282 111.663 115.462 111.582C116.107 111.292 116.66 110.829 117.057 110.245C117.454 109.662 117.681 108.98 117.712 108.275C117.722 108.077 117.414 108.079 117.404 108.275Z" fill="#EF9D45"/>
<path d="M125.866 75.9087C124.013 76.4395 122.42 77.6273 121.388 79.2476C120.312 80.9403 119.898 82.9672 120.225 84.9436C118.732 79.0544 120.66 76.4519 122.646 75.7553C122.745 75.7208 122.847 75.6972 122.951 75.6847C123.928 75.5517 124.921 75.6281 125.866 75.9087Z" fill="#EF9D45"/>
<path d="M124.867 82.6162C125.01 82.6162 125.126 82.5007 125.126 82.3583C125.126 82.2158 125.01 82.1003 124.867 82.1003C124.723 82.1003 124.607 82.2158 124.607 82.3583C124.607 82.5007 124.723 82.6162 124.867 82.6162Z" fill="#07363B"/>
<path d="M127.761 82.3583C127.761 82.4093 127.746 82.4591 127.718 82.5015C127.689 82.544 127.649 82.577 127.601 82.5965C127.554 82.6161 127.502 82.6212 127.452 82.6112C127.401 82.6013 127.355 82.5767 127.319 82.5406C127.283 82.5046 127.258 82.4586 127.248 82.4086C127.238 82.3585 127.243 82.3067 127.263 82.2596C127.283 82.2124 127.316 82.1721 127.358 82.1438C127.401 82.1155 127.451 82.1003 127.502 82.1003C127.536 82.1003 127.57 82.107 127.601 82.12C127.633 82.1329 127.662 82.1519 127.686 82.1759C127.71 82.1998 127.729 82.2283 127.742 82.2596C127.755 82.2908 127.761 82.3244 127.761 82.3583Z" fill="#07363B"/>
<path d="M126.602 82.3521C126.558 82.1594 126.26 82.2414 126.304 82.4337C126.43 82.9659 126.426 83.5206 126.292 84.0509C126.281 84.0902 126.286 84.1323 126.306 84.1678C126.327 84.2032 126.36 84.2293 126.4 84.2401C126.439 84.2509 126.482 84.2456 126.517 84.2255C126.553 84.2053 126.579 84.1718 126.59 84.1325C126.737 83.5485 126.741 82.938 126.602 82.3521Z" fill="#FE869F"/>
<path d="M128.094 81.418C127.941 81.2936 127.753 81.2208 127.556 81.2101C127.359 81.1994 127.164 81.2515 126.998 81.3587C126.833 81.467 126.988 81.7329 127.154 81.6234C127.26 81.5497 127.387 81.5113 127.517 81.5136C127.647 81.5159 127.772 81.5588 127.876 81.6362C128.031 81.7555 128.249 81.5403 128.094 81.418Z" fill="#07363B"/>
<path d="M125.277 81.288C125.102 81.1968 124.905 81.1535 124.707 81.1623C124.51 81.1712 124.318 81.232 124.151 81.3385C123.985 81.4447 124.139 81.7106 124.307 81.6035C124.426 81.5239 124.564 81.4772 124.707 81.4683C124.85 81.4594 124.993 81.4885 125.121 81.5528C125.298 81.6415 125.455 81.3768 125.277 81.288Z" fill="#07363B"/>
<path d="M124.867 84.2411L126.856 84.553C126.856 84.553 126.252 85.4799 125.576 85.3419C124.901 85.2039 124.867 84.2411 124.867 84.2411Z" fill="white"/>
</svg>
