<svg width="16" height="14" viewBox="0 0 16 14" fill="none" xmlns="http://www.w3.org/2000/svg">
<path d="M15.0383 5.73782C14.9729 5.72719 14.9066 5.72229 14.8403 5.72315H3.55262L3.79875 5.60867C4.03934 5.4948 4.25821 5.33983 4.44556 5.15076L7.61091 1.98541C8.02779 1.58745 8.09784 0.947258 7.7769 0.468556C7.40338 -0.0415567 6.68706 -0.152315 6.17691 0.221209C6.1357 0.251403 6.09653 0.284316 6.05972 0.319733L0.335755 6.04369C-0.111572 6.49052 -0.111966 7.21535 0.334861 7.66268C0.335147 7.66297 0.335469 7.66329 0.335755 7.66358L6.05972 13.3875C6.5074 13.834 7.23223 13.833 7.6787 13.3853C7.71383 13.35 7.74664 13.3126 7.7769 13.2731C8.09784 12.7944 8.02779 12.1542 7.61091 11.7562L4.45128 8.58513C4.28332 8.41699 4.09021 8.276 3.87889 8.16728L3.53545 8.01274H14.7773C15.3621 8.03445 15.8752 7.62594 15.9851 7.05111C16.0863 6.42702 15.6624 5.83906 15.0383 5.73782Z" fill="black"/>
</svg>
