<svg width="25" height="22" viewBox="0 0 25 22" fill="none" xmlns="http://www.w3.org/2000/svg">
<path d="M17.2866 0.0880737H2.82715C1.26807 0.0880737 0 1.35614 0 2.91522V15.5861C0 16.1862 0.678663 16.5245 1.15772 16.1823L5.18457 13.3093C5.52247 13.0686 5.91993 12.9411 6.33497 12.9411H15.1919C16.751 12.9411 18.0191 11.673 18.0191 10.114V0.820496C18.0191 0.416199 17.6909 0.0880737 17.2866 0.0880737ZM13.729 8.96064H5.26661C4.86231 8.96064 4.53418 8.633 4.53418 8.22822C4.53418 7.82392 4.86231 7.49579 5.26661 7.49579H13.729C14.1333 7.49579 14.4614 7.82392 14.4614 8.22822C14.4614 8.633 14.1333 8.96064 13.729 8.96064ZM13.729 5.54267H5.26661C4.86231 5.54267 4.53418 5.21503 4.53418 4.81025C4.53418 4.40595 4.86231 4.07782 5.26661 4.07782H13.729C14.1333 4.07782 14.4614 4.40595 14.4614 4.81025C14.4614 5.21503 14.1333 5.54267 13.729 5.54267Z" fill="#DADADA"/>
<path d="M25 8.59638V21.2668C25 21.8628 24.3248 22.2076 23.8423 21.863L19.8154 18.9904C19.4775 18.7497 19.0801 18.6223 18.665 18.6223H9.80811C8.24902 18.6223 6.98096 17.3537 6.98096 15.7946V14.4059H15.1919C17.5586 14.4059 19.4839 12.4807 19.4839 10.114V5.76874H22.1729C23.7319 5.76874 25 7.03729 25 8.59638Z" fill="#DADADA"/>
</svg>
