<svg xmlns="http://www.w3.org/2000/svg" width="17" height="17" fill="none" viewBox="0 0 17 17">
  <path fill="#AFB9C7" d="M14.368 3.734H6.782A1.567 1.567 0 005.3 2.667c-.689 0-1.275.448-1.483 1.067H2.632a.498.498 0 000 .996h1.184c.208.62.794 1.067 1.483 1.067.689 0 1.275-.447 1.483-1.067h7.586a.498.498 0 100-.996zM5.299 4.801A.57.57 0 115.3 3.662a.57.57 0 010 1.14zM14.368 8.002h-1.184A1.567 1.567 0 0011.7 6.935c-.69 0-1.275.448-1.484 1.067H2.632a.498.498 0 000 .996h7.585c.209.62.795 1.067 1.484 1.067.688 0 1.274-.448 1.483-1.067h1.184a.498.498 0 100-.996zm-2.667 1.067a.57.57 0 11.001-1.14.57.57 0 01-.001 1.14zM14.368 12.27H8.916a1.567 1.567 0 00-1.483-1.067c-.689 0-1.275.447-1.483 1.067H2.632a.498.498 0 000 .996H5.95c.208.62.794 1.067 1.483 1.067.689 0 1.275-.448 1.483-1.067h5.452a.498.498 0 100-.996zm-6.935 1.067a.57.57 0 11.001-1.14.57.57 0 01-.001 1.14z"/>
</svg>
