<svg width="19" height="22" viewBox="0 0 19 22" fill="none" xmlns="http://www.w3.org/2000/svg">
<path d="M9.03814 10.5974C10.494 10.5974 11.7547 10.0753 12.7848 9.04502C13.8148 8.01495 14.337 6.7546 14.337 5.29854C14.337 3.84299 13.8148 2.58247 12.7846 1.55207C11.7544 0.522167 10.4939 0 9.03814 0C7.58208 0 6.32173 0.522167 5.29166 1.55223C4.26159 2.5823 3.73926 3.84282 3.73926 5.29854C3.73926 6.7546 4.26159 8.01512 5.29183 9.04519C6.32206 10.0751 7.58258 10.5974 9.03814 10.5974Z" fill="black"/>
<path d="M18.3101 16.9168C18.2804 16.4881 18.2203 16.0205 18.1318 15.5267C18.0425 15.0292 17.9276 14.5589 17.7899 14.129C17.6478 13.6847 17.4544 13.246 17.2154 12.8255C16.9673 12.3891 16.6759 12.0091 16.349 11.6964C16.0071 11.3693 15.5885 11.1063 15.1044 10.9145C14.622 10.7236 14.0874 10.6269 13.5156 10.6269C13.291 10.6269 13.0738 10.7191 12.6544 10.9922C12.3962 11.1605 12.0943 11.3552 11.7572 11.5706C11.469 11.7542 11.0786 11.9262 10.5964 12.082C10.1259 12.2342 9.64826 12.3114 9.17678 12.3114C8.7053 12.3114 8.22778 12.2342 7.75681 12.082C7.27509 11.9264 6.88468 11.7544 6.59683 11.5707C6.26298 11.3574 5.96086 11.1627 5.69885 10.992C5.27991 10.7189 5.06255 10.6268 4.83798 10.6268C4.26596 10.6268 3.73154 10.7236 3.24932 10.9146C2.76559 11.1061 2.34681 11.3692 2.00458 11.6966C1.67778 12.0095 1.38623 12.3893 1.1385 12.8255C0.899651 13.246 0.706293 13.6846 0.56396 14.1292C0.426495 14.5591 0.311521 15.0292 0.222227 15.5267C0.133773 16.0198 0.0736841 16.4876 0.0439755 16.9173C0.0147704 17.3382 0 17.7751 0 18.2164C0 19.3648 0.365064 20.2945 1.08495 20.9801C1.79595 21.6567 2.73672 22 3.88075 22H14.4738C15.6178 22 16.5583 21.6569 17.2694 20.9801C17.9895 20.295 18.3546 19.3651 18.3546 18.2162C18.3544 17.773 18.3395 17.3357 18.3101 16.9168Z" fill="black"/>
</svg>
